<mxfile host="65bd71144e">
    <diagram id="nGRwAYGNMs25tcpGshyp" name="Page-1">
        <mxGraphModel dx="2464" dy="1124" grid="1" gridSize="10" guides="1" tooltips="1" connect="1" arrows="1" fold="1" page="1" pageScale="1" pageWidth="850" pageHeight="1100" math="0" shadow="0">
            <root>
                <mxCell id="0"/>
                <mxCell id="1" parent="0"/>
                <mxCell id="6" value="Utilisateur" style="swimlane;fontStyle=0;childLayout=stackLayout;horizontal=1;startSize=30;horizontalStack=0;resizeParent=1;resizeParentMax=0;resizeLast=0;collapsible=1;marginBottom=0;whiteSpace=wrap;html=1;" vertex="1" parent="1">
                    <mxGeometry x="860" y="610" width="140" height="120" as="geometry">
                        <mxRectangle x="310" y="70" width="70" height="30" as="alternateBounds"/>
                    </mxGeometry>
                </mxCell>
                <mxCell id="7" value="&lt;u&gt;id_utilisateur : int&lt;/u&gt;" style="text;strokeColor=none;fillColor=none;align=left;verticalAlign=middle;spacingLeft=4;spacingRight=4;overflow=hidden;points=[[0,0.5],[1,0.5]];portConstraint=eastwest;rotatable=0;whiteSpace=wrap;html=1;" vertex="1" parent="6">
                    <mxGeometry y="30" width="140" height="30" as="geometry"/>
                </mxCell>
                <mxCell id="8" value="prenom : string" style="text;strokeColor=none;fillColor=none;align=left;verticalAlign=middle;spacingLeft=4;spacingRight=4;overflow=hidden;points=[[0,0.5],[1,0.5]];portConstraint=eastwest;rotatable=0;whiteSpace=wrap;html=1;" vertex="1" parent="6">
                    <mxGeometry y="60" width="140" height="30" as="geometry"/>
                </mxCell>
                <mxCell id="9" value="nom : string" style="text;strokeColor=none;fillColor=none;align=left;verticalAlign=middle;spacingLeft=4;spacingRight=4;overflow=hidden;points=[[0,0.5],[1,0.5]];portConstraint=eastwest;rotatable=0;whiteSpace=wrap;html=1;" vertex="1" parent="6">
                    <mxGeometry y="90" width="140" height="30" as="geometry"/>
                </mxCell>
                <mxCell id="42" value="s'abonne" style="endArrow=none;html=1;" edge="1" parent="6" source="7" target="9">
                    <mxGeometry width="50" height="50" relative="1" as="geometry">
                        <mxPoint x="240" y="80" as="sourcePoint"/>
                        <mxPoint x="290" y="30" as="targetPoint"/>
                        <Array as="points">
                            <mxPoint x="290" y="45"/>
                            <mxPoint x="290" y="105"/>
                        </Array>
                    </mxGeometry>
                </mxCell>
                <mxCell id="10" value="Photo" style="swimlane;fontStyle=0;childLayout=stackLayout;horizontal=1;startSize=30;horizontalStack=0;resizeParent=1;resizeParentMax=0;resizeLast=0;collapsible=1;marginBottom=0;whiteSpace=wrap;html=1;" vertex="1" parent="1">
                    <mxGeometry x="460" y="380" width="140" height="120" as="geometry"/>
                </mxCell>
                <mxCell id="11" value="id_photo : int" style="text;strokeColor=none;fillColor=none;align=left;verticalAlign=middle;spacingLeft=4;spacingRight=4;overflow=hidden;points=[[0,0.5],[1,0.5]];portConstraint=eastwest;rotatable=0;whiteSpace=wrap;html=1;fontStyle=4" vertex="1" parent="10">
                    <mxGeometry y="30" width="140" height="30" as="geometry"/>
                </mxCell>
                <mxCell id="13" value="nom : string" style="text;strokeColor=none;fillColor=none;align=left;verticalAlign=middle;spacingLeft=4;spacingRight=4;overflow=hidden;points=[[0,0.5],[1,0.5]];portConstraint=eastwest;rotatable=0;whiteSpace=wrap;html=1;" vertex="1" parent="10">
                    <mxGeometry y="60" width="140" height="30" as="geometry"/>
                </mxCell>
                <mxCell id="12" value="résolution : int" style="text;strokeColor=none;fillColor=none;align=left;verticalAlign=middle;spacingLeft=4;spacingRight=4;overflow=hidden;points=[[0,0.5],[1,0.5]];portConstraint=eastwest;rotatable=0;whiteSpace=wrap;html=1;" vertex="1" parent="10">
                    <mxGeometry y="90" width="140" height="30" as="geometry"/>
                </mxCell>
                <mxCell id="14" value="Discussion" style="swimlane;fontStyle=0;childLayout=stackLayout;horizontal=1;startSize=30;horizontalStack=0;resizeParent=1;resizeParentMax=0;resizeLast=0;collapsible=1;marginBottom=0;whiteSpace=wrap;html=1;" vertex="1" parent="1">
                    <mxGeometry x="510" y="650" width="140" height="60" as="geometry"/>
                </mxCell>
                <mxCell id="15" value="id_discution : int" style="text;strokeColor=none;fillColor=none;align=left;verticalAlign=middle;spacingLeft=4;spacingRight=4;overflow=hidden;points=[[0,0.5],[1,0.5]];portConstraint=eastwest;rotatable=0;whiteSpace=wrap;html=1;" vertex="1" parent="14">
                    <mxGeometry y="30" width="140" height="30" as="geometry"/>
                </mxCell>
                <mxCell id="18" value="Commentaire" style="swimlane;fontStyle=0;childLayout=stackLayout;horizontal=1;startSize=30;horizontalStack=0;resizeParent=1;resizeParentMax=0;resizeLast=0;collapsible=1;marginBottom=0;whiteSpace=wrap;html=1;" vertex="1" parent="1">
                    <mxGeometry x="680" y="380" width="140" height="90" as="geometry"/>
                </mxCell>
                <mxCell id="19" value="id_commentaire : int" style="text;strokeColor=none;fillColor=none;align=left;verticalAlign=middle;spacingLeft=4;spacingRight=4;overflow=hidden;points=[[0,0.5],[1,0.5]];portConstraint=eastwest;rotatable=0;whiteSpace=wrap;html=1;" vertex="1" parent="18">
                    <mxGeometry y="30" width="140" height="30" as="geometry"/>
                </mxCell>
                <mxCell id="59" value="message" style="text;strokeColor=none;fillColor=none;align=left;verticalAlign=middle;spacingLeft=4;spacingRight=4;overflow=hidden;points=[[0,0.5],[1,0.5]];portConstraint=eastwest;rotatable=0;whiteSpace=wrap;html=1;" vertex="1" parent="18">
                    <mxGeometry y="60" width="140" height="30" as="geometry"/>
                </mxCell>
                <mxCell id="20" value="Contenu Numéric" style="swimlane;fontStyle=0;childLayout=stackLayout;horizontal=1;startSize=30;horizontalStack=0;resizeParent=1;resizeParentMax=0;resizeLast=0;collapsible=1;marginBottom=0;whiteSpace=wrap;html=1;" vertex="1" parent="1">
                    <mxGeometry x="570" y="200" width="140" height="60" as="geometry"/>
                </mxCell>
                <mxCell id="21" value="id_contenu : int" style="text;strokeColor=none;fillColor=none;align=left;verticalAlign=middle;spacingLeft=4;spacingRight=4;overflow=hidden;points=[[0,0.5],[1,0.5]];portConstraint=eastwest;rotatable=0;whiteSpace=wrap;html=1;" vertex="1" parent="20">
                    <mxGeometry y="30" width="140" height="30" as="geometry"/>
                </mxCell>
                <mxCell id="26" value="" style="endArrow=classic;html=1;" edge="1" parent="1" source="10">
                    <mxGeometry width="50" height="50" relative="1" as="geometry">
                        <mxPoint x="400" y="430" as="sourcePoint"/>
                        <mxPoint x="630" y="260" as="targetPoint"/>
                        <Array as="points">
                            <mxPoint x="530" y="320"/>
                            <mxPoint x="630" y="320"/>
                        </Array>
                    </mxGeometry>
                </mxCell>
                <mxCell id="27" value="" style="endArrow=classic;html=1;" edge="1" parent="1" source="18">
                    <mxGeometry width="50" height="50" relative="1" as="geometry">
                        <mxPoint x="400" y="430" as="sourcePoint"/>
                        <mxPoint x="630" y="260" as="targetPoint"/>
                        <Array as="points">
                            <mxPoint x="750" y="320"/>
                            <mxPoint x="630" y="320"/>
                        </Array>
                    </mxGeometry>
                </mxCell>
                <mxCell id="28" value="contient" style="endArrow=none;html=1;" edge="1" parent="1" source="14" target="12">
                    <mxGeometry x="0.1" width="50" height="50" relative="1" as="geometry">
                        <mxPoint x="460" y="430" as="sourcePoint"/>
                        <mxPoint x="510" y="380" as="targetPoint"/>
                        <Array as="points">
                            <mxPoint x="580" y="590"/>
                            <mxPoint x="530" y="590"/>
                        </Array>
                        <mxPoint as="offset"/>
                    </mxGeometry>
                </mxCell>
                <mxCell id="29" value="contient" style="endArrow=none;html=1;" edge="1" parent="1" source="14" target="59">
                    <mxGeometry width="50" height="50" relative="1" as="geometry">
                        <mxPoint x="460" y="430" as="sourcePoint"/>
                        <mxPoint x="510" y="380" as="targetPoint"/>
                        <Array as="points">
                            <mxPoint x="750" y="680"/>
                            <mxPoint x="750" y="600"/>
                        </Array>
                    </mxGeometry>
                </mxCell>
                <mxCell id="30" value="écrit" style="endArrow=none;html=1;" edge="1" parent="1" source="6" target="19">
                    <mxGeometry width="50" height="50" relative="1" as="geometry">
                        <mxPoint x="460" y="430" as="sourcePoint"/>
                        <mxPoint x="510" y="380" as="targetPoint"/>
                        <Array as="points">
                            <mxPoint x="930" y="425"/>
                        </Array>
                    </mxGeometry>
                </mxCell>
                <mxCell id="31" value="aime" style="endArrow=none;html=1;" edge="1" parent="1" source="13" target="9">
                    <mxGeometry x="-0.2021" width="50" height="50" relative="1" as="geometry">
                        <mxPoint x="930" y="820" as="sourcePoint"/>
                        <mxPoint x="510" y="580" as="targetPoint"/>
                        <Array as="points">
                            <mxPoint x="380" y="455"/>
                            <mxPoint x="380" y="910"/>
                            <mxPoint x="930" y="910"/>
                        </Array>
                        <mxPoint as="offset"/>
                    </mxGeometry>
                </mxCell>
                <mxCell id="32" value="1.1" style="text;html=1;strokeColor=none;fillColor=none;align=center;verticalAlign=middle;whiteSpace=wrap;rounded=0;" vertex="1" parent="1">
                    <mxGeometry x="650" y="650" width="60" height="30" as="geometry"/>
                </mxCell>
                <mxCell id="33" value="1.n" style="text;html=1;strokeColor=none;fillColor=none;align=center;verticalAlign=middle;whiteSpace=wrap;rounded=0;" vertex="1" parent="1">
                    <mxGeometry x="690" y="480" width="60" height="30" as="geometry"/>
                </mxCell>
                <mxCell id="34" value="1.1" style="text;html=1;strokeColor=none;fillColor=none;align=center;verticalAlign=middle;whiteSpace=wrap;rounded=0;" vertex="1" parent="1">
                    <mxGeometry x="530" y="500" width="60" height="30" as="geometry"/>
                </mxCell>
                <mxCell id="35" value="0.1" style="text;html=1;strokeColor=none;fillColor=none;align=center;verticalAlign=middle;whiteSpace=wrap;rounded=0;" vertex="1" parent="1">
                    <mxGeometry x="580" y="610" width="60" height="30" as="geometry"/>
                </mxCell>
                <mxCell id="36" value="0.n" style="text;html=1;strokeColor=none;fillColor=none;align=center;verticalAlign=middle;whiteSpace=wrap;rounded=0;" vertex="1" parent="1">
                    <mxGeometry x="400" y="460" width="60" height="30" as="geometry"/>
                </mxCell>
                <mxCell id="37" value="0.n" style="text;html=1;strokeColor=none;fillColor=none;align=center;verticalAlign=middle;whiteSpace=wrap;rounded=0;" vertex="1" parent="1">
                    <mxGeometry x="860" y="730" width="60" height="30" as="geometry"/>
                </mxCell>
                <mxCell id="38" value="1.1" style="text;html=1;strokeColor=none;fillColor=none;align=center;verticalAlign=middle;whiteSpace=wrap;rounded=0;" vertex="1" parent="1">
                    <mxGeometry x="930" y="580" width="60" height="30" as="geometry"/>
                </mxCell>
                <mxCell id="39" value="0.n" style="text;html=1;strokeColor=none;fillColor=none;align=center;verticalAlign=middle;whiteSpace=wrap;rounded=0;" vertex="1" parent="1">
                    <mxGeometry x="820" y="395" width="60" height="30" as="geometry"/>
                </mxCell>
                <mxCell id="41" value="0&lt;span style=&quot;font-size: 10px;&quot;&gt;.n&lt;/span&gt;" style="text;html=1;strokeColor=none;fillColor=none;align=center;verticalAlign=middle;whiteSpace=wrap;rounded=0;" vertex="1" parent="1">
                    <mxGeometry x="1000" y="720" width="60" height="30" as="geometry"/>
                </mxCell>
                <mxCell id="43" value="0&lt;span style=&quot;font-size: 10px;&quot;&gt;.n&lt;/span&gt;" style="text;html=1;strokeColor=none;fillColor=none;align=center;verticalAlign=middle;whiteSpace=wrap;rounded=0;" vertex="1" parent="1">
                    <mxGeometry x="1000" y="620" width="60" height="30" as="geometry"/>
                </mxCell>
                <mxCell id="44" value="Balise" style="swimlane;fontStyle=0;childLayout=stackLayout;horizontal=1;startSize=30;horizontalStack=0;resizeParent=1;resizeParentMax=0;resizeLast=0;collapsible=1;marginBottom=0;whiteSpace=wrap;html=1;" vertex="1" parent="1">
                    <mxGeometry x="-10" y="380" width="140" height="60" as="geometry"/>
                </mxCell>
                <mxCell id="45" value="id_balise : int" style="text;strokeColor=none;fillColor=none;align=left;verticalAlign=middle;spacingLeft=4;spacingRight=4;overflow=hidden;points=[[0,0.5],[1,0.5]];portConstraint=eastwest;rotatable=0;whiteSpace=wrap;html=1;" vertex="1" parent="44">
                    <mxGeometry y="30" width="140" height="30" as="geometry"/>
                </mxCell>
                <mxCell id="48" value="associe" style="endArrow=none;html=1;" edge="1" parent="1" source="45" target="11">
                    <mxGeometry x="-0.0303" y="15" width="50" height="50" relative="1" as="geometry">
                        <mxPoint x="190" y="560" as="sourcePoint"/>
                        <mxPoint x="240" y="510" as="targetPoint"/>
                        <mxPoint as="offset"/>
                    </mxGeometry>
                </mxCell>
                <mxCell id="49" value="Tag" style="swimlane;fontStyle=0;childLayout=stackLayout;horizontal=1;startSize=30;horizontalStack=0;resizeParent=1;resizeParentMax=0;resizeLast=0;collapsible=1;marginBottom=0;whiteSpace=wrap;html=1;" vertex="1" parent="1">
                    <mxGeometry x="-120" y="560" width="140" height="60" as="geometry"/>
                </mxCell>
                <mxCell id="52" value="nom_tag" style="text;strokeColor=none;fillColor=none;align=left;verticalAlign=middle;spacingLeft=4;spacingRight=4;overflow=hidden;points=[[0,0.5],[1,0.5]];portConstraint=eastwest;rotatable=0;whiteSpace=wrap;html=1;" vertex="1" parent="49">
                    <mxGeometry y="30" width="140" height="30" as="geometry"/>
                </mxCell>
                <mxCell id="53" value="Mot Clef" style="swimlane;fontStyle=0;childLayout=stackLayout;horizontal=1;startSize=30;horizontalStack=0;resizeParent=1;resizeParentMax=0;resizeLast=0;collapsible=1;marginBottom=0;whiteSpace=wrap;html=1;" vertex="1" parent="1">
                    <mxGeometry x="130" y="560" width="140" height="60" as="geometry"/>
                </mxCell>
                <mxCell id="56" value="Mot" style="text;strokeColor=none;fillColor=none;align=left;verticalAlign=middle;spacingLeft=4;spacingRight=4;overflow=hidden;points=[[0,0.5],[1,0.5]];portConstraint=eastwest;rotatable=0;whiteSpace=wrap;html=1;" vertex="1" parent="53">
                    <mxGeometry y="30" width="140" height="30" as="geometry"/>
                </mxCell>
                <mxCell id="57" value="0.n" style="text;html=1;strokeColor=none;fillColor=none;align=center;verticalAlign=middle;whiteSpace=wrap;rounded=0;" vertex="1" parent="1">
                    <mxGeometry x="130" y="395" width="60" height="30" as="geometry"/>
                </mxCell>
                <mxCell id="58" value="0.n" style="text;html=1;strokeColor=none;fillColor=none;align=center;verticalAlign=middle;whiteSpace=wrap;rounded=0;" vertex="1" parent="1">
                    <mxGeometry x="400" y="395" width="60" height="30" as="geometry"/>
                </mxCell>
                <mxCell id="61" value="" style="endArrow=classic;html=1;" edge="1" parent="1" source="53" target="45">
                    <mxGeometry width="50" height="50" relative="1" as="geometry">
                        <mxPoint x="170" y="560" as="sourcePoint"/>
                        <mxPoint x="220" y="510" as="targetPoint"/>
                        <Array as="points">
                            <mxPoint x="200" y="510"/>
                            <mxPoint x="60" y="510"/>
                        </Array>
                    </mxGeometry>
                </mxCell>
                <mxCell id="62" value="" style="endArrow=classic;html=1;" edge="1" parent="1" source="49" target="45">
                    <mxGeometry width="50" height="50" relative="1" as="geometry">
                        <mxPoint x="184.54545454545473" y="570" as="sourcePoint"/>
                        <mxPoint x="82.72727272727298" y="450" as="targetPoint"/>
                        <Array as="points">
                            <mxPoint x="-50" y="510"/>
                            <mxPoint x="60" y="510"/>
                        </Array>
                    </mxGeometry>
                </mxCell>
                <mxCell id="65" value="est_vue" style="endArrow=none;html=1;" edge="1" parent="1" source="12" target="8">
                    <mxGeometry x="0.0002" width="50" height="50" relative="1" as="geometry">
                        <mxPoint x="570" y="610" as="sourcePoint"/>
                        <mxPoint x="620" y="560" as="targetPoint"/>
                        <Array as="points">
                            <mxPoint x="430" y="510"/>
                            <mxPoint x="430" y="820"/>
                            <mxPoint x="790" y="820"/>
                            <mxPoint x="790" y="690"/>
                        </Array>
                        <mxPoint as="offset"/>
                    </mxGeometry>
                </mxCell>
                <mxCell id="66" value="0.n" style="text;html=1;strokeColor=none;fillColor=none;align=center;verticalAlign=middle;whiteSpace=wrap;rounded=0;" vertex="1" parent="1">
                    <mxGeometry x="800" y="655" width="60" height="30" as="geometry"/>
                </mxCell>
                <mxCell id="67" value="0.n" style="text;html=1;strokeColor=none;fillColor=none;align=center;verticalAlign=middle;whiteSpace=wrap;rounded=0;" vertex="1" parent="1">
                    <mxGeometry x="430" y="510" width="60" height="30" as="geometry"/>
                </mxCell>
            </root>
        </mxGraphModel>
    </diagram>
</mxfile>